HIERARCHY
ROOT Hips
{
	OFFSET 45.000000 -7.758496 99.890198
	CHANNELS 6 Xposition Yposition Zposition Xrotation Yrotation Zrotation
	JOINT spine
	{
		OFFSET 0.000000 -0.507026 8.817039
		CHANNELS 3 Xrotation Yrotation Zrotation
		JOINT spine1
		{
			OFFSET 0.000000 -0.000001 10.776604
			CHANNELS 3 Xrotation Yrotation Zrotation
			JOINT spine2
			{
				OFFSET 0.000000 -0.000002 10.325897
				CHANNELS 3 Xrotation Yrotation Zrotation
				JOINT Neck
				{
					OFFSET 0.000000 -1.263955 26.511002
					CHANNELS 3 Xrotation Yrotation Zrotation
					JOINT Head
					{
						OFFSET 0.000000 -0.000001 8.009659
						CHANNELS 3 Xrotation Yrotation Zrotation
						End Site
						{
							OFFSET 0.000000 6.393857 19.387894
						}
					}
				}
				JOINT RightShoulder
				{
					OFFSET -4.347950 0.605420 11.151199
					CHANNELS 3 Xrotation Yrotation Zrotation
					JOINT RightArm
					{
						OFFSET 0.000000 -0.000002 14.625793
						CHANNELS 3 Xrotation Yrotation Zrotation
						JOINT RightArmRoll
						{
							OFFSET 0.000000 -0.000001 7.383392
							CHANNELS 3 Xrotation Yrotation Zrotation
							JOINT RightForeArm
							{
								OFFSET 0.000000 -0.000003 21.505203
								CHANNELS 3 Xrotation Yrotation Zrotation
								JOINT RightForeArmRoll
								{
									OFFSET 0.000000 -0.000001 8.285324
									CHANNELS 3 Xrotation Yrotation Zrotation
									JOINT RightHand
									{
										OFFSET 0.000000 -0.000003 16.626801
										CHANNELS 3 Xrotation Yrotation Zrotation
										End Site
										{
											OFFSET 0.000000 0.000000 0.100006
										}
									}
								}
							}
						}
					}
				}
				JOINT LeftShoulder
				{
					OFFSET 4.347950 0.605420 11.151199
					CHANNELS 3 Xrotation Yrotation Zrotation
					JOINT LeftArm
					{
						OFFSET 0.000000 -0.000002 14.625793
						CHANNELS 3 Xrotation Yrotation Zrotation
						JOINT LeftArmRoll
						{
							OFFSET 0.000000 -0.000001 7.383392
							CHANNELS 3 Xrotation Yrotation Zrotation
							JOINT LeftForeArm
							{
								OFFSET 0.000000 -0.000003 21.505203
								CHANNELS 3 Xrotation Yrotation Zrotation
								JOINT LeftForeArmRoll
								{
									OFFSET 0.000000 -0.000001 8.285324
									CHANNELS 3 Xrotation Yrotation Zrotation
									JOINT LeftHand
									{
										OFFSET 0.000000 -0.000003 16.626801
										CHANNELS 3 Xrotation Yrotation Zrotation
										End Site
										{
											OFFSET 0.000000 0.000000 0.100006
										}
									}
								}
							}
						}
					}
				}
			}
		}
	}
	JOINT RightUpLeg
	{
		OFFSET -7.815102 1.202170 -1.433090
		CHANNELS 3 Xrotation Yrotation Zrotation
		JOINT RightUpLegRoll
		{
			OFFSET 0.000000 -0.000003 19.495895
			CHANNELS 3 Xrotation Yrotation Zrotation
			JOINT RightLeg
			{
				OFFSET 0.000000 0.000004 -24.142700
				CHANNELS 3 Xrotation Yrotation Zrotation
				JOINT RightLegRoll
				{
					OFFSET 0.000000 -0.000004 24.221703
					CHANNELS 3 Xrotation Yrotation Zrotation
					JOINT RightFoot
					{
						OFFSET 0.000000 -0.000003 20.160500
						CHANNELS 3 Xrotation Yrotation Zrotation
						JOINT RightToeBase
						{
							OFFSET 0.000000 -0.000003 16.853195
							CHANNELS 3 Xrotation Yrotation Zrotation
							End Site
							{
								OFFSET 0.007145 0.940780 8.161865
							}
						}
					}
				}
			}
		}
	}
	JOINT LeftUpLeg
	{
		OFFSET 7.815102 1.202170 -1.433090
		CHANNELS 3 Xrotation Yrotation Zrotation
		JOINT LeftUpLegRoll
		{
			OFFSET 0.000000 -0.000003 19.496002
			CHANNELS 3 Xrotation Yrotation Zrotation
			JOINT LeftLeg
			{
				OFFSET 0.000000 -0.000004 24.142593
				CHANNELS 3 Xrotation Yrotation Zrotation
				JOINT LeftLegRoll
				{
					OFFSET 0.000000 -0.000004 24.445602
					CHANNELS 3 Xrotation Yrotation Zrotation
					JOINT LeftFoot
					{
						OFFSET 0.000000 -0.000003 19.936600
						CHANNELS 3 Xrotation Yrotation Zrotation
						JOINT LeftToeBase
						{
							OFFSET 0.000000 -0.000002 16.853195
							CHANNELS 3 Xrotation Yrotation Zrotation
							End Site
							{
								OFFSET -0.032013 0.940779 8.161880
							}
						}
					}
				}
			}
		}
	}
}
MOTION
Frames: 12
Frame Time: 0.041667
50.832096 -18.407326 114.597000 8.553728 3.589678 7.855247 -2.221562 -0.194726 0.054315 -0.440136 -0.390999 0.103054 1.204958 -0.389737 0.107730 -7.542109 8.249520 0.982180 14.901530 -3.811914 0.258255 -12.945346 -37.793165 -14.323602 74.180888 -131.789525 -13.648817 -0.000001 -0.000003 -0.000000 94.259097 25.274123 -26.110724 -0.000001 0.000004 -3.002461 -5.000230 -7.998713 0.000148 -13.183391 47.687961 15.116607 84.080571 117.030961 -18.843650 -0.000000 0.000026 0.000001 98.742563 -14.645124 24.199089 0.000003 -0.000027 3.000011 -5.000244 7.998757 -0.000143 -19.399230 -177.529498 1.534251 -179.999991 0.000005 -1.064999 150.323475 -3.820364 -2.270377 -0.000004 0.000004 0.418977 68.586383 6.755177 2.500462 25.456965 -7.355616 -0.000000 -23.019993 -188.204114 -1.422664 -0.000003 -0.000005 -1.051571 -30.672604 4.011131 2.076623 0.000000 -0.000002 -0.436314 69.018809 -6.825875 -2.307189 25.456959 7.355617 -0.000002 
50.824295 -18.394623 114.486000 8.588865 3.592363 7.853493 -2.219341 -0.193754 0.056299 -0.435688 -0.389109 0.107047 1.209398 -0.387800 0.111695 -7.488391 8.251005 0.978169 14.776921 -3.834018 0.259345 -12.956031 -37.824386 -14.339647 73.749036 -131.680337 -13.514654 0.000000 -0.000003 -0.000001 93.995028 24.945046 -25.579605 -0.000000 0.000002 -3.002460 -5.000229 -7.998715 0.000152 -13.225753 47.693449 15.170422 84.003643 116.993477 -18.895455 0.000002 0.000028 -0.000001 98.702504 -14.603274 24.123074 0.000005 -0.000027 3.000014 -5.000241 7.998753 -0.000141 -19.453017 -177.567105 1.500629 -179.999991 0.000005 -1.063005 150.364306 -3.803623 -2.264282 -0.000004 0.000004 0.418699 68.584518 6.755256 2.500191 25.456957 -7.355614 -0.000000 -23.078796 -188.217214 -1.408139 -0.000004 -0.000003 -1.050730 -30.589368 4.016848 2.072600 -0.000001 -0.000002 -0.435376 69.018563 -6.825791 -2.307786 25.456957 7.355615 -0.000000 
50.818596 -18.356823 114.385010 8.622335 3.596001 7.849696 -2.216601 -0.192850 0.058003 -0.430214 -0.387348 0.110476 1.214878 -0.385998 0.115106 -7.436584 8.249825 0.975467 14.654292 -3.854663 0.261840 -12.965785 -37.857491 -14.354633 73.309827 -131.567325 -13.383276 0.000002 -0.000002 -0.000001 93.728125 24.611832 -25.046037 0.000000 0.000002 -3.002449 -5.000228 -7.998716 0.000147 -13.272265 47.697222 15.229382 83.913669 116.956225 -18.942493 -0.000001 0.000030 -0.000003 98.653012 -14.555710 24.034935 0.000006 -0.000027 3.000010 -5.000240 7.998754 -0.000143 -19.506069 -177.607499 1.467541 -179.999991 0.000005 -1.060996 150.403539 -3.787684 -2.258833 -0.000005 0.000004 0.418430 68.582005 6.755326 2.500057 25.456959 -7.355616 0.000000 -23.134380 -188.230465 -1.394245 -0.000004 -0.000003 -1.049811 -30.503707 4.022359 2.068324 -0.000002 -0.000002 -0.434375 69.019055 -6.825678 -2.308436 25.456957 7.355612 0.000001 
50.782196 -18.312922 114.239998 8.653966 3.600733 7.844039 -2.213263 -0.192022 0.059371 -0.423511 -0.385730 0.113234 1.221578 -0.384347 0.117840 -7.387901 8.246011 0.974156 14.534340 -3.874138 0.265816 -12.974794 -37.892066 -14.368650 72.863235 -131.450925 -13.254467 0.000000 -0.000005 0.000002 93.458421 24.274755 -24.510602 -0.000000 0.000004 -3.002451 -5.000228 -7.998716 0.000151 -13.322923 47.699183 15.293485 83.810745 116.919356 -18.985020 -0.000001 0.000029 -0.000003 98.593869 -14.502450 23.934192 0.000006 -0.000028 3.000012 -5.000239 7.998753 -0.000143 -19.558318 -177.648794 1.434494 -179.999991 0.000005 -1.059002 150.440504 -3.772529 -2.253040 -0.000006 0.000003 0.418164 68.578999 6.755427 2.499861 25.456960 -7.355616 -0.000000 -23.187415 -188.246625 -1.379903 -0.000004 -0.000003 -1.048781 -30.417442 4.027536 2.063895 -0.000001 -0.000002 -0.433332 69.020182 -6.825569 -2.308946 25.456959 7.355612 -0.000001 
50.799896 -18.309525 114.147003 8.683562 3.606669 7.836723 -2.209202 -0.191280 0.060344 -0.415380 -0.384270 0.115198 1.229707 -0.382864 0.119791 -7.343566 8.239584 0.974319 14.418082 -3.892672 0.271341 -12.983131 -37.927812 -14.381773 72.409492 -131.331970 -13.128223 -0.000000 -0.000005 -0.000003 93.186006 23.934250 -23.974159 -0.000001 0.000001 -3.002452 -5.000230 -7.998713 0.000152 -13.377847 47.699524 15.362871 83.695253 116.882951 -19.023945 0.000000 0.000029 -0.000002 98.524994 -14.443164 23.821383 0.000006 -0.000028 3.000012 -5.000241 7.998753 -0.000141 -19.610025 -177.692890 1.402336 -179.999991 0.000005 -1.056994 150.474340 -3.758099 -2.247957 -0.000006 0.000003 0.417901 68.575536 6.755461 2.499878 25.456962 -7.355617 -0.000000 -23.237934 -188.262922 -1.366471 -0.000003 -0.000004 -1.047649 -30.332050 4.032218 2.059372 -0.000002 -0.000002 -0.432263 69.021848 -6.825484 -2.309428 25.456952 7.355615 -0.000003 
50.753895 -18.258224 114.003006 8.710946 3.613957 7.827944 -2.204320 -0.190633 0.060861 -0.405620 -0.382979 0.116263 1.239467 -0.381560 0.120839 -7.304774 8.230578 0.976039 14.306217 -3.910548 0.278485 -12.990617 -37.964456 -14.393884 71.945381 -131.211895 -13.008570 0.000000 -0.000002 -0.000000 92.910852 23.590674 -23.437280 0.000003 0.000003 -3.002440 -5.000230 -7.998714 0.000150 -13.437145 47.698507 15.437708 83.566770 116.847174 -19.058914 0.000001 0.000027 -0.000002 98.446132 -14.377717 23.695922 0.000007 -0.000028 3.000012 -5.000241 7.998753 -0.000141 -19.661232 -177.737901 1.370590 -179.999991 0.000006 -1.054999 150.504229 -3.744383 -2.242641 -0.000005 0.000003 0.417634 68.571671 6.755537 2.499829 25.456959 -7.355616 -0.000001 -23.286710 -188.282060 -1.352841 -0.000003 -0.000004 -1.046402 -30.249241 4.036262 2.054830 -0.000001 -0.000002 -0.431188 69.024027 -6.825403 -2.309878 25.456953 7.355614 -0.000001 
50.822796 -18.219322 113.888000 8.735923 3.622713 7.817922 -2.198521 -0.190086 0.060871 -0.394031 -0.381875 0.116313 1.251058 -0.380456 0.120874 -7.272759 8.219012 0.979392 14.199556 -3.928014 0.287303 -12.997573 -38.001646 -14.405229 71.472220 -131.091179 -12.893670 -0.000000 -0.000003 -0.000004 92.633006 23.244367 -22.900726 0.000002 0.000002 -3.002441 -5.000229 -7.998716 0.000150 -13.500850 47.696024 15.518014 83.425850 116.811958 -19.090925 -0.000002 0.000030 -0.000002 98.357128 -14.306067 23.557626 0.000005 -0.000029 3.000008 -5.000240 7.998752 -0.000143 -19.712105 -177.785685 1.340092 -179.999991 0.000005 -1.053005 150.529378 -3.731364 -2.238145 -0.000005 0.000004 0.417359 68.567490 6.755628 2.499902 25.456959 -7.355615 -0.000000 -23.333948 -188.302209 -1.339980 -0.000004 -0.000004 -1.045030 -30.170715 4.039535 2.050367 0.000000 -0.000002 -0.430126 69.026848 -6.825319 -2.310188 25.456952 7.355613 0.000000 
50.789295 -18.175022 113.733994 8.758309 3.633091 7.806828 -2.191710 -0.189647 0.060314 -0.380410 -0.380971 0.115228 1.264677 -0.379564 0.119777 -7.248700 8.204909 0.984455 14.098901 -3.945329 0.297866 -13.003860 -38.039308 -14.415748 70.990090 -130.970298 -12.783146 0.000003 -0.000001 0.000002 92.352436 22.895629 -22.365338 0.000000 0.000002 -3.002443 -5.000230 -7.998718 0.000152 -13.569056 47.692370 15.603922 83.272464 116.777616 -19.120220 0.000000 0.000027 0.000000 98.257968 -14.227827 23.406879 0.000006 -0.000028 3.000011 -5.000239 7.998754 -0.000143 -19.762879 -177.834398 1.310360 -179.999991 0.000005 -1.050997 150.548830 -3.720738 -2.234501 -0.000005 0.000004 0.417073 68.563181 6.755634 2.500166 25.456965 -7.355615 -0.000001 -23.380137 -188.323328 -1.327988 -0.000004 -0.000003 -1.043519 -30.098065 4.041874 2.046048 -0.000003 -0.000002 -0.429095 69.030092 -6.825225 -2.310671 25.456952 7.355613 0.000000 
50.755497 -18.183624 113.626991 8.776058 3.645865 7.793817 -2.183511 -0.189482 0.059133 -0.363996 -0.380591 0.112896 1.281088 -0.379213 0.117441 -7.231740 8.185971 0.991306 14.003723 -3.960328 0.310269 -13.007668 -38.080238 -14.423148 70.496322 -130.845893 -12.676998 0.000001 -0.000003 -0.000000 92.070219 22.541164 -21.829600 0.000000 0.000005 -3.002432 -5.000229 -7.998714 0.000150 -13.642610 47.684706 15.696456 83.099592 116.743547 -19.140965 -0.000001 0.000031 -0.000003 98.148883 -14.141307 23.240832 0.000007 -0.000028 3.000009 -5.000242 7.998758 -0.000142 -19.809504 -177.887728 1.281315 -179.999991 0.000005 -1.050000 150.566152 -3.710043 -2.231008 -0.000003 0.000003 0.416729 68.558263 6.755703 2.500381 25.456962 -7.355615 -0.000000 -23.420058 -188.347562 -1.315862 -0.000004 -0.000004 -1.041851 -30.023664 4.042839 2.041284 -0.000002 -0.000002 -0.427988 69.033965 -6.825131 -2.310915 25.456952 7.355613 0.000000 
50.729397 -18.143620 113.470001 8.787849 3.661495 7.778049 -2.173744 -0.189701 0.057352 -0.344470 -0.380961 0.109365 1.300619 -0.379625 0.113915 -7.219819 8.160520 0.999924 13.912379 -3.971175 0.324531 -13.007822 -38.127144 -14.425856 69.994604 -130.712663 -12.568182 0.000002 -0.000004 0.000001 91.787593 22.177691 -21.292676 0.000004 0.000005 -3.002431 -5.000230 -7.998714 0.000151 -13.722052 47.671063 15.796301 82.901756 116.709341 -19.148403 -0.000002 0.000031 -0.000003 98.030912 -14.044954 23.059373 0.000004 -0.000030 3.000008 -5.000241 7.998753 -0.000142 -19.848972 -177.945634 1.251718 -179.999991 0.000005 -1.048005 150.584743 -3.701128 -2.227422 -0.000005 0.000004 0.416294 68.552396 6.755775 2.500753 25.456962 -7.355616 -0.000000 -23.449364 -188.375210 -1.303256 -0.000004 -0.000003 -1.040009 -29.939960 4.042244 2.035548 -0.000001 -0.000002 -0.426714 69.038261 -6.825063 -2.311337 25.456957 7.355613 -0.000000 
50.773895 -18.103424 113.333984 8.794654 3.679545 7.759709 -2.162641 -0.190231 0.055044 -0.322276 -0.381940 0.104764 1.322810 -0.380658 0.109324 -7.212394 8.129430 1.010212 13.824774 -3.978535 0.340606 -13.004625 -38.178903 -14.424456 69.482340 -130.571483 -12.461400 -0.000002 -0.000003 0.000001 91.504365 21.806190 -20.754392 0.000000 0.000004 -3.002430 -5.000230 -7.998711 0.000151 -13.806894 47.652293 15.902837 82.682117 116.674726 -19.145066 -0.000000 0.000029 -0.000000 97.904287 -13.939293 22.863877 0.000006 -0.000031 3.000008 -5.000240 7.998753 -0.000146 -19.882797 -178.008158 1.221998 -179.999991 0.000005 -1.046994 150.603827 -3.692215 -2.223789 -0.000004 0.000003 0.415795 68.545805 6.755862 2.501072 25.456960 -7.355615 -0.000000 -23.469720 -188.405249 -1.290596 -0.000004 -0.000004 -1.038010 -29.848784 4.040380 2.029030 -0.000001 -0.000002 -0.425295 69.043281 -6.824925 -2.311802 25.456947 7.355613 -0.000000 
50.737896 -18.072021 113.179001 8.797419 3.699610 7.738988 -2.150433 -0.191003 0.052264 -0.297870 -0.383391 0.099225 1.347221 -0.382177 0.103802 -7.208940 8.093605 1.022081 13.740337 -3.983088 0.358413 -12.999209 -38.234689 -14.420148 68.961586 -130.422285 -12.355539 0.000002 -0.000003 -0.000000 91.220291 21.427214 -20.214988 -0.000003 0.000003 -3.002420 -5.000233 -7.998713 0.000151 -13.896703 47.629320 16.015551 82.442883 116.639468 -19.132441 -0.000002 0.000028 0.000000 97.768906 -13.825268 22.653905 0.000005 -0.000026 3.000010 -5.000239 7.998753 -0.000141 -19.912390 -178.075285 1.192587 -179.999991 0.000005 -1.044999 150.622760 -3.684176 -2.220679 -0.000005 0.000004 0.415248 68.538476 6.755968 2.501439 25.456967 -7.355616 -0.000000 -23.483001 -188.438499 -1.277477 -0.000004 -0.000004 -1.035880 -29.751945 4.037540 2.021919 -0.000003 -0.000002 -0.423762 69.048848 -6.824858 -2.312146 25.456952 7.355614 0.000000 
